<?xml version="1.0" encoding="UTF-8"?> <svg xmlns="http://www.w3.org/2000/svg" width="168.113" height="109.877" viewBox="0 0 168.113 109.877"><g id="Group_2620" data-name="Group 2620" transform="translate(0 -0.573)"><g id="effi-01" transform="translate(0 0.573)"><g id="Group_45" data-name="Group 45" transform="translate(0 0)"><g id="Group_40" data-name="Group 40" transform="translate(0 35.704)"><path id="Path_24" data-name="Path 24" d="M158.678,224.256c-4.584-1.879-11.423-2.856-20.516-2.856s-15.857,1.428-20.291,4.284a19.231,19.231,0,0,0-8.492,12.249c-1.278,5.261-1.879,12.7-1.879,22.245a87.3,87.3,0,0,0,1.353,17.059,22.989,22.989,0,0,0,4.81,10.671,19.551,19.551,0,0,0,9.77,5.862c4.208,1.2,9.694,1.8,16.533,1.8a80.726,80.726,0,0,0,17.21-1.428,16.924,16.924,0,0,0,10.07-6.388c2.48-3.307,3.682-8.342,3.682-15.181H159.58v2.4c0,5.11-1.578,8.342-4.659,9.845-3.081,1.428-7.665,2.179-13.753,2.179h-2.856c-6.162,0-10.6-1.052-13.377-3.081a12.576,12.576,0,0,1-5.11-8.267,94.679,94.679,0,0,1-.9-15.105h52v-5.636q-.225-14.091-2.705-20.967A17.057,17.057,0,0,0,158.678,224.256Zm-39.905,27.956c0-6.012.526-10.6,1.653-13.753a11.2,11.2,0,0,1,6.012-6.764c2.856-1.353,7.139-2.029,12.625-2.029q9.469,0,13.753,1.8a9.2,9.2,0,0,1,5.561,6.313c.827,3.006,1.278,7.816,1.278,14.279H118.773Z" transform="translate(-107.5 -221.4)" fill="#24275e"></path></g><g id="Group_41" data-name="Group 41" transform="translate(68.012 0)"><path id="Path_25" data-name="Path 25" d="M232.119,179.9c-8.116,0-14.053,1.646-17.736,4.939s-5.561,9.172-5.561,17.638v11.053H198V222.7h10.822v66.4h10.972V222.7h19.239v-9.172H219.794V201.537c0-8.075,4.434-12.151,13.3-12.151.676,0,1.653,0,3.081.078,1.353.078,2.33.078,2.856.078v-9.25c-.827,0-1.954-.078-3.382-.157A32.721,32.721,0,0,0,232.119,179.9Z" transform="translate(-198 -179.9)" fill="#24275e"></path></g><g id="Group_42" data-name="Group 42" transform="translate(110.848 0)"><path id="Path_26" data-name="Path 26" d="M289.119,179.9c-8.117,0-14.053,1.646-17.736,4.939s-5.561,9.172-5.561,17.638v11.053H255V222.7h10.822v66.4h10.972V222.7h19.239v-9.172H276.794V201.537c0-8.075,4.434-12.151,13.3-12.151.676,0,1.653,0,3.081.078,1.353.078,2.33.078,2.856.078v-9.25c-.827,0-1.954-.078-3.382-.157A31.57,31.57,0,0,0,289.119,179.9Z" transform="translate(-255 -179.9)" fill="#24275e"></path></g><g id="Group_43" data-name="Group 43" transform="translate(157.141 0.15)"><rect id="Rectangle_50" data-name="Rectangle 50" width="10.972" height="12.024" fill="#24275e"></rect></g><g id="Group_44" data-name="Group 44" transform="translate(157.141 35.779)"><rect id="Rectangle_51" data-name="Rectangle 51" width="10.972" height="72.371" fill="#24275e"></rect></g></g></g></g></svg> 